<svg width="104" height="8" viewBox="0 0 104 8" fill="none" xmlns="http://www.w3.org/2000/svg">
<g id="&#209;&#129;&#208;&#187;&#208;&#176;&#208;&#185;&#208;&#180;&#208;&#181;&#209;&#128;">
<path id="Arrow 1" d="M103.354 4.35355C103.549 4.15829 103.549 3.84171 103.354 3.64645L100.172 0.464466C99.9763 0.269204 99.6597 0.269204 99.4645 0.464466C99.2692 0.659728 99.2692 0.976311 99.4645 1.17157L102.293 4L99.4645 6.82843C99.2692 7.02369 99.2692 7.34027 99.4645 7.53553C99.6597 7.7308 99.9763 7.7308 100.172 7.53553L103.354 4.35355ZM63 4.5H103V3.5H63V4.5Z" fill="#303030"/>
<path id="Arrow 2" d="M0.646446 3.64645C0.451183 3.84171 0.451183 4.15829 0.646446 4.35355L3.82843 7.53553C4.02369 7.7308 4.34027 7.7308 4.53553 7.53553C4.7308 7.34027 4.7308 7.02369 4.53553 6.82843L1.70711 4L4.53553 1.17157C4.7308 0.976311 4.7308 0.659728 4.53553 0.464466C4.34027 0.269204 4.02369 0.269204 3.82843 0.464466L0.646446 3.64645ZM41 3.5L1 3.5V4.5L41 4.5V3.5Z" fill="#303030"/>
</g>
</svg>
